<svg width="400" height="400" viewBox="0 0 400 400" fill="none" xmlns="http://www.w3.org/2000/svg">
<path fill-rule="evenodd" clip-rule="evenodd" d="M226.394 204.948C223.322 199.245 219.536 194.283 215.363 189.673C211.771 185.706 210.95 186.366 207.308 190.26C188.049 210.852 176.305 232.695 163.779 256.681C159.923 264.066 156.909 269.917 154.278 277.008C153.238 279.814 155.246 282.447 158.088 281.936C163.797 280.906 224.005 282.634 239.693 277.008C243.067 275.805 241.803 269.11 241.604 262.986C239.076 246.198 235.459 221.763 226.394 204.948Z" stroke="black" stroke-opacity="0.9" stroke-width="16" stroke-linecap="round" stroke-linejoin="round"/>
<path d="M182.411 286.434C184.666 303.683 184.078 325.201 183.926 331.767C183.661 342.972 179.962 346.69 169 346.866" stroke="black" stroke-opacity="0.9" stroke-width="16" stroke-linecap="round" stroke-linejoin="round"/>
<path d="M156.089 255C153.824 253.351 153.529 248.32 150.749 247.22C145.546 245.163 143.184 228.818 141.361 223.371C136.041 207.512 191.077 180 203.767 180C217.493 186.752 254.022 194.208 261.345 208.689C262.987 211.942 263.925 215.167 261.64 218.733C255.675 228.068 248.191 247.144 240.503 255" stroke="black" stroke-opacity="0.9" stroke-width="16" stroke-linecap="round" stroke-linejoin="round"/>
<path d="M225.946 345.369C211.171 347.746 207.357 347.746 207.357 342.01C207.357 340.847 207.384 322.489 207.357 321.437C207.23 316.43 209.324 293.376 208.5 286.434" stroke="black" stroke-opacity="0.9" stroke-width="16" stroke-linecap="round" stroke-linejoin="round"/>
<path d="M173.459 82.2562C221.616 19.2113 309.45 120.723 247.729 162.275C199.769 194.566 143.462 144.235 165.979 100.442" stroke="black" stroke-opacity="0.9" stroke-width="16" stroke-linecap="round" stroke-linejoin="round"/>
<path d="M179 87C180.476 89.2664 181.931 91.5203 184.587 93.663C187.34 95.8596 219.482 122.761 249 115.876" stroke="black" stroke-opacity="0.9" stroke-width="16" stroke-linecap="round" stroke-linejoin="round"/>
<path d="M179.459 73.7566C179.459 62.9098 176.831 57.4863 171.573 57.4863C163.687 57.4863 157.378 60.7404 160.532 73.7566" stroke="black" stroke-opacity="0.9" stroke-width="16" stroke-linecap="round" stroke-linejoin="round"/>
<path fill-rule="evenodd" clip-rule="evenodd" d="M269.506 75.6099C274.958 66.5006 274.958 60.3063 269.506 57.0269C261.329 52.1079 246.46 52.1079 249.624 65.2253C251.734 73.9702 258.361 77.4318 269.506 75.6099Z" stroke="black" stroke-opacity="0.9" stroke-width="16" stroke-linecap="round" stroke-linejoin="round"/>
</svg>
