<svg width="400" height="400" viewBox="0 0 400 400" fill="none" xmlns="http://www.w3.org/2000/svg">
<path d="M193.941 57.6953C202.731 47.1377 216.825 39.6378 231.307 43.286C267.608 52.4389 249.117 119.172 218.117 123.081C165.966 129.657 160.915 72.1291 200.538 52.1539" stroke="black" stroke-opacity="0.9" stroke-width="16" stroke-linecap="round" stroke-linejoin="round"/>
<path d="M169.76 129.406C155.41 148.116 101.77 265.077 113.723 282.721C114.967 284.561 151.284 280.517 156.312 280.517C163.225 280.517 194.935 284.269 200.02 280.517C205.842 276.217 196.792 254.57 195.54 249.63C185.625 210.598 187.119 167.425 174.244 129.406" stroke="black" stroke-opacity="0.9" stroke-width="16" stroke-linecap="round" stroke-linejoin="round"/>
<path d="M171.608 60.1185C168.728 24.9905 218.178 36.5562 198.956 61.2143" stroke="black" stroke-opacity="0.9" stroke-width="16" stroke-linecap="round" stroke-linejoin="round"/>
<path d="M183.094 143.914C200.327 162.747 240.444 207.753 265.795 207.753" stroke="black" stroke-opacity="0.9" stroke-width="16" stroke-linecap="round" stroke-linejoin="round"/>
<path opacity="0.503384" d="M244.031 212.367C249.783 206.078 269.582 184.945 279.253 196.787C290.11 210.085 287.205 322.756 287.205 347.041" stroke="black" stroke-opacity="0.9" stroke-width="14" stroke-linecap="round" stroke-linejoin="round"/>
<path d="M172.438 289.004C175.568 311.362 174.806 333.516 174.806 355.745" stroke="black" stroke-opacity="0.9" stroke-width="16" stroke-linecap="round" stroke-linejoin="round"/>
<path d="M145.504 289.004C146.318 312.714 146.688 336.321 146.688 360.098" stroke="black" stroke-opacity="0.9" stroke-width="16" stroke-linecap="round" stroke-linejoin="round"/>
<path d="M178.741 356.471C181.156 356.471 179.948 357.196 182.368 357.196" stroke="black" stroke-opacity="0.9" stroke-width="16" stroke-linecap="round" stroke-linejoin="round"/>
<path d="M146.822 360.498C148.454 359.967 149.811 361.556 151.174 361.208" stroke="black" stroke-opacity="0.9" stroke-width="16" stroke-linecap="round" stroke-linejoin="round"/>
</svg>
