<svg width="400" height="400" viewBox="0 0 400 400" fill="none" xmlns="http://www.w3.org/2000/svg">
<path d="M170.775 263.266C45.3695 89.9489 351.415 57.2556 235.074 265" stroke="black" stroke-opacity="0.9" stroke-width="16" stroke-linecap="round" stroke-linejoin="round"/>
<path d="M223.926 294.786C208.713 303.727 197.076 301.397 183.348 292.717" stroke="black" stroke-opacity="0.9" stroke-width="16" stroke-linecap="round" stroke-linejoin="round"/>
<path d="M223.931 323.947C209.382 329.705 191.961 332.227 179.771 321.113" stroke="black" stroke-opacity="0.9" stroke-width="16" stroke-linecap="round" stroke-linejoin="round"/>
<path opacity="0.503384" d="M200.609 264.024C205.622 256.119 213.14 177.546 195.739 180.507C177.592 183.598 183.172 214.638 200.609 217.11C230.615 221.367 231.089 172.083 212.779 191.559C204.814 200.033 202.007 211.528 194.927 220.564" stroke="black" stroke-opacity="0.9" stroke-width="16" stroke-linecap="round" stroke-linejoin="round"/>
<path opacity="0.503384" d="M216.242 90.0703C218.011 84.0801 217.417 77.9769 218.487 72" stroke="black" stroke-opacity="0.9" stroke-width="16" stroke-linecap="round" stroke-linejoin="round"/>
<path opacity="0.503384" d="M146.354 105.558C143.63 101.988 141.597 97.7995 139.193 93.9414" stroke="black" stroke-opacity="0.9" stroke-width="16" stroke-linecap="round" stroke-linejoin="round"/>
<path opacity="0.503384" d="M112.935 173.968C108.795 172.81 104.705 171.159 101 168.805" stroke="black" stroke-opacity="0.9" stroke-width="16" stroke-linecap="round" stroke-linejoin="round"/>
<path opacity="0.503384" d="M271.67 121.047C275.349 119.092 278.89 116.851 282.411 114.594" stroke="black" stroke-opacity="0.9" stroke-width="16" stroke-linecap="round" stroke-linejoin="round"/>
<path opacity="0.503384" d="M283.008 191.451C288.326 192.179 293.384 190.905 298.523 189.832" stroke="black" stroke-opacity="0.9" stroke-width="16" stroke-linecap="round" stroke-linejoin="round"/>
</svg>
