<svg width="400" height="400" viewBox="0 0 400 400" fill="none" xmlns="http://www.w3.org/2000/svg">
<path d="M101.682 97.5204C109.977 87.2305 122.685 84.4439 134.97 89.854C156.179 99.1936 169.981 118.98 169.981 143.522C169.981 248.938 9.86982 171.221 91.9238 93.3927" stroke="black" stroke-opacity="0.9" stroke-width="16" stroke-linecap="round" stroke-linejoin="round"/>
<path d="M165.412 210.025C176.551 238.987 192.545 276.537 188.389 311.859" stroke="black" stroke-opacity="0.9" stroke-width="16" stroke-linecap="round" stroke-linejoin="round"/>
<path d="M166.443 212.254C167.642 232.606 166.443 293.568 155.387 341.466" stroke="black" stroke-opacity="0.9" stroke-width="16" stroke-linecap="round" stroke-linejoin="round"/>
<path d="M218.858 197.199C208.926 238.344 200.378 297.201 188.383 311.858" stroke="black" stroke-opacity="0.9" stroke-width="16" stroke-linecap="round" stroke-linejoin="round"/>
<path d="M220.938 190.968C235.424 179.707 245.713 191.357 229.247 203.432" stroke="black" stroke-opacity="0.9" stroke-width="16" stroke-linecap="round" stroke-linejoin="round"/>
<path d="M228.73 203.951C244.943 202.639 242.324 216.174 227.172 215.376" stroke="black" stroke-opacity="0.9" stroke-width="16" stroke-linecap="round" stroke-linejoin="round"/>
<path d="M206.91 133.32C211.658 146.085 220.188 182.23 220.413 183.176" stroke="black" stroke-opacity="0.5" stroke-width="16" stroke-linecap="round" stroke-linejoin="round"/>
<path d="M207.949 131.244C234.932 111.604 262.93 92.9971 290.525 74.1152" stroke="black" stroke-opacity="0.9" stroke-width="16" stroke-linecap="round" stroke-linejoin="round"/>
<path d="M293.645 75.1543C298.546 103.584 303.119 134.02 311.821 161.365" stroke="black" stroke-opacity="0.9" stroke-width="16" stroke-linecap="round" stroke-linejoin="round"/>
<path d="M214.184 165.521C246.129 164.854 278.228 161.365 310.262 161.365" stroke="black" stroke-opacity="0.9" stroke-width="16" stroke-linecap="round" stroke-linejoin="round"/>
<path d="M151.87 175.959C151.064 171.094 150.066 164.916 149.574 160.625" stroke="black" stroke-opacity="0.9" stroke-width="16" stroke-linecap="round" stroke-linejoin="round"/>
<path d="M151.618 132.316C151.828 130.138 151.033 126.517 150.471 124.588" stroke="black" stroke-opacity="0.9" stroke-width="16" stroke-linecap="round" stroke-linejoin="round"/>
<path d="M132.676 134.084C132.774 132.315 132.592 129.9 132.396 127.287" stroke="black" stroke-opacity="0.9" stroke-width="16" stroke-linecap="round" stroke-linejoin="round"/>
<path d="M319.09 75.1548C324.742 69.5787 337.881 61.5803 341.941 58.5352" stroke="black" stroke-opacity="0.5" stroke-width="16" stroke-linecap="round" stroke-linejoin="round"/>
<path d="M334.725 106.501C341.808 103.798 349.432 101.84 356.537 99.75" stroke="black" stroke-opacity="0.5" stroke-width="16" stroke-linecap="round" stroke-linejoin="round"/>
<path d="M335.707 143.709C342.73 146.275 349.655 146.306 356.999 146.306" stroke="black" stroke-opacity="0.5" stroke-width="16" stroke-linecap="round" stroke-linejoin="round"/>
<path d="M193.928 141.631C180.731 158.383 193.312 166.049 208.47 159.808" stroke="black" stroke-opacity="0.9" stroke-width="16" stroke-linecap="round" stroke-linejoin="round"/>
<path d="M237.554 172.271C238.206 177.451 234.174 182.789 232.881 186.813" stroke="black" stroke-opacity="0.9" stroke-width="16" stroke-linecap="round" stroke-linejoin="round"/>
<path d="M78.5293 218.936C90.8485 261.117 97.4655 276.665 97.4655 341.464" stroke="black" stroke-opacity="0.9" stroke-width="16" stroke-linecap="round" stroke-linejoin="round"/>
<path d="M77.4148 218.936C67.4031 240.991 37.1441 326.55 45.4121 339.236" stroke="black" stroke-opacity="0.9" stroke-width="16" stroke-linecap="round" stroke-linejoin="round"/>
</svg>
