<svg width="400" height="400" viewBox="0 0 400 400" fill="none" xmlns="http://www.w3.org/2000/svg">
<path d="M261.95 89.0161C236.121 75.5521 207.016 110.001 228.86 136.327C234.953 143.668 242.983 147.851 252.417 145.199C267.224 141.033 285.071 120.643 269.007 100.631" stroke="black" stroke-opacity="0.9" stroke-width="16" stroke-linecap="round" stroke-linejoin="round"/>
<path fill-rule="evenodd" clip-rule="evenodd" d="M243.4 156.932C245.778 157.558 248.101 158.376 250.489 158.95C252.945 159.553 255.464 159.878 257.956 160.228C260.23 160.409 275.269 161.847 275.332 163.966C275.405 166.355 260.953 196.838 259.138 200.64C255.562 208.111 251.826 215.479 248.207 222.916C247.337 224.687 246.541 226.494 245.745 228.3C245.044 229.882 244.324 231.429 243.123 232.673C241.425 234.459 239.186 235.378 236.809 235.332C233.285 235.289 229.761 235.062 226.28 234.536C221.791 233.864 216.325 233.135 213.002 229.612C209.192 225.575 210.284 219.855 210.255 214.75C210.233 210.308 210.01 205.869 209.999 201.426C209.988 196.514 210.094 191.589 210.445 186.688C210.869 180.856 211.252 175.021 211.676 169.201C211.964 165.353 211.807 159.201 214.241 156.086C215.762 154.14 220.444 154.451 222.343 154.138C222.919 154.04 223.506 154 224.095 154C226.147 154 228.258 154.482 230.282 154.767C234.711 155.226 239.053 155.795 243.4 156.932Z" stroke="black" stroke-opacity="0.9" stroke-width="16" stroke-linecap="round" stroke-linejoin="round"/>
<path d="M276.667 164.667C279.187 160.79 281.797 156.882 284.71 153.286C287.286 150.093 289.874 146.888 292.463 143.684C295.375 140.087 298.284 136.491 301.197 132.884C303.628 129.87 305.881 126.689 308.199 123.578C311.25 119.187 314.302 114.808 317.226 110.34C319.364 107.064 321.66 103.793 323.522 100.323C323.65 98.1902 324.251 96.3092 325.769 94.7054C326.409 94.0365 326.941 93.6277 327.51 93.299C327.675 93.0617 327.845 92.8273 328.013 92.5957C329.225 90.952 331.77 90.0715 333.758 90.0029C333.838 90.0029 333.918 90 334 90" stroke="black" stroke-opacity="0.9" stroke-width="16" stroke-linecap="round" stroke-linejoin="round"/>
<path d="M154.001 263.144C154.26 261.096 155.392 259.157 156.438 257.384C157.47 255.634 158.502 253.918 159.815 252.344C163.24 248.201 169.37 246.627 174.028 249.795C176.071 251.182 177.204 252.356 178.776 254.261C179.382 255.005 179.919 255.799 180.485 256.573C184.109 260.628 188.196 264.335 192.167 268.031C197.771 273.252 202.972 279.006 209.044 283.706C210.237 284.494 211.45 285.248 212.668 286C212.401 280.87 212.11 275.742 211.665 270.623C211.205 265.271 210.544 259.945 210.004 254.593C209.691 251.536 209.444 248.49 209.208 245.43C209.027 242.937 208.938 240.455 208.995 237.965C209.073 233.864 209.803 229.911 211.004 226" stroke="black" stroke-opacity="0.9" stroke-width="16" stroke-linecap="round" stroke-linejoin="round"/>
<path fill-rule="evenodd" clip-rule="evenodd" d="M147.422 308.484C147.366 308.607 147.307 308.73 147.246 308.85C147.27 308.812 147.297 308.775 147.326 308.738C147.358 308.652 147.39 308.57 147.422 308.484Z" stroke="black" stroke-opacity="0.9" stroke-width="16" stroke-linecap="round" stroke-linejoin="round"/>
<path d="M140.665 314.001C141.056 310.708 144.084 308.293 146.48 306.402C148.117 305.112 149.756 303.868 151.527 302.766C152.873 301.943 154.299 301.253 155.636 300.419C157.073 299.528 158.465 298.593 159.837 297.637C162.976 295.455 165.996 293.148 168.987 290.779C173.707 286.809 178.415 282.657 183.539 279.205C188.997 275.522 194.546 271.983 200.138 268.491C205.371 265.21 210.273 261.459 215.129 257.643C219.76 254.029 224.371 250.384 228.919 246.676C232.147 243.865 240.121 238.173 243.332 235.334" stroke="black" stroke-opacity="0.9" stroke-width="16" stroke-linecap="round" stroke-linejoin="round"/>
<path d="M167.619 223.333C166.81 221.82 165.99 220.173 166.001 218.392C166.013 216.289 166.41 214.719 167.253 212.815C167.962 211.222 168.892 209.92 169.922 208.506C170.688 207.458 171.591 206.651 172.615 205.996C172.655 205.853 172.7 205.711 172.751 205.568C173.625 202.975 174.777 200.513 175.985 198.076C177.991 194.058 180.542 190.274 183.112 186.612C186.281 182.112 189.419 177.573 192.966 173.364C195.834 169.97 198.717 166.653 201.974 163.623C207.061 158.916 213.158 154.351 220.328 154.006C220.441 154 220.554 154 220.668 154" stroke="black" stroke-opacity="0.9" stroke-width="16" stroke-linecap="round" stroke-linejoin="round"/>
<path opacity="0.503384" d="M216.668 154.348C197.426 146.893 183.705 143.743 175.504 144.898C163.203 146.631 138.087 160.737 131.928 178.664C125.77 196.591 110.452 223.333 97.7942 228.896C85.1365 234.46 73.9667 230.517 66.0013 232.666" stroke="black" stroke-opacity="0.9" stroke-width="14" stroke-linecap="round" stroke-linejoin="round"/>
</svg>
